<svg xmlns="http://www.w3.org/2000/svg" viewBox="0 0 1024 1024" width="32" height="32">
  <rect width="1024" height="1024" rx="192" fill="#000000"/>
  <!-- Upper-left shape -->
  <path fill-rule="evenodd" clip-rule="evenodd" fill="#FFFFFF" d="M 530.5,258.5 C 531.5,258.5 532.5,258.5 533.5,258.5C 553.598,259.825 573.598,259.825 593.5,258.5C 596.5,258.5 599.5,258.5 602.5,258.5C 605.273,259.657 608.273,260.324 611.5,260.5C 616.302,262.127 620.468,264.794 624,268.5C 630.942,279.405 638.109,290.071 645.5,300.5C 655.003,316.844 665.003,332.844 675.5,348.5C 675.427,350.027 676.094,351.027 677.5,351.5C 683.754,363.016 690.754,374.016 698.5,384.5C 703.155,392.472 707.822,400.472 712.5,408.5C 712.427,410.027 713.094,411.027 714.5,411.5C 719.474,419.087 717.807,424.921 709.5,429C 662.833,429.667 616.167,429.667 569.5,429C 567.975,427.991 566.308,427.491 564.5,427.5C 560.603,425.114 557.103,422.114 554,418.5C 549.364,410.056 544.198,402.056 538.5,394.5C 537,390.827 535,387.494 532.5,384.5C 530.281,379.291 527.281,374.624 523.5,370.5C 515.491,356.377 507.158,343.043 498.5,330.5C 496.316,326.119 493.65,322.119 490.5,318.5C 490.011,317.005 489.345,315.671 488.5,314.5C 487.649,312.118 486.316,310.118 484.5,308.5C 484.672,307.508 484.338,306.842 483.5,306.5C 483.5,305.833 483.167,305.5 482.5,305.5C 476.33,297.555 468.33,295.055 458.5,298C 456.273,298.941 454.273,300.108 452.5,301.5C 451.833,301.5 451.5,301.833 451.5,302.5C 445.554,308.427 444.054,315.427 447,323.5C 459.358,344.235 472.191,364.569 485.5,384.5C 498.336,406.178 511.669,427.511 525.5,448.5C 527.194,455.947 524.527,461.113 517.5,464C 468.167,464.667 418.833,464.667 369.5,464C 363.047,462.611 357.713,459.444 353.5,454.5C 343.82,439.797 334.153,425.13 324.5,410.5C 323.66,408.147 322.326,406.147 320.5,404.5C 315.997,396.156 310.997,388.156 305.5,380.5C 305.5,379.5 305.5,378.5 305.5,377.5C 305.5,374.167 305.5,370.833 305.5,367.5C 307.269,362.052 310.603,357.719 315.5,354.5C 319.566,351.437 322.899,347.771 325.5,343.5C 326.5,342.167 327.5,340.833 328.5,339.5C 331.5,337.167 334.167,334.5 336.5,331.5C 339.5,329.167 342.167,326.5 344.5,323.5C 356.112,311.553 367.778,299.553 379.5,287.5C 382.5,286.5 384.5,284.5 385.5,281.5C 389.167,277.5 392.833,273.5 396.5,269.5C 400.516,265.492 405.182,262.492 410.5,260.5C 450.805,259.802 490.805,259.135 530.5,258.5 Z"/>
  <!-- Lower-right shape -->
  <path fill-rule="evenodd" clip-rule="evenodd" fill="#FFFFFF" d="M 657.5,475.5 C 664.789,477.595 670.956,481.595 676,487.5C 692,511.5 708,535.5 724,559.5C 725.874,563.52 725.874,567.52 724,571.5C 721.283,574.71 718.783,578.044 716.5,581.5C 691.195,608.474 665.861,635.474 640.5,662.5C 634.73,668.771 628.73,674.938 622.5,681C 618.547,683.81 614.213,685.81 609.5,687C 546.833,687.667 484.167,687.667 421.5,687C 419.277,686.434 417.277,685.6 415.5,684.5C 415.027,683.094 414.027,682.427 412.5,682.5C 411.833,682.5 411.167,682.5 410.5,682.5C 405.379,677.722 401.046,672.388 397.5,666.5C 396.331,663.489 394.664,660.822 392.5,658.5C 386.069,647.96 379.402,637.627 372.5,627.5C 371.241,623.975 369.241,620.975 366.5,618.5C 355.912,600.316 344.579,582.649 332.5,565.5C 332.068,564.29 331.401,563.29 330.5,562.5C 327.996,557.485 324.996,552.819 321.5,548.5C 321.672,547.508 321.338,546.842 320.5,546.5C 319.525,544.205 318.192,542.205 316.5,540.5C 313.555,534.896 310.221,529.562 306.5,524.5C 304.65,520.355 304.15,516.021 305,511.5C 306.728,508.047 309.562,506.214 313.5,506C 361.156,506.344 408.49,506.344 455.5,506C 465.15,507.51 472.483,512.343 477.5,520.5C 490.587,541.677 503.92,562.677 517.5,583.5C 522.42,593.014 528.086,602.014 534.5,610.5C 539.119,620.228 545.119,629.061 552.5,637C 559.208,640.671 566.208,641.338 573.5,639C 576.106,638.208 578.106,636.708 579.5,634.5C 580.167,634.5 580.5,634.167 580.5,633.5C 584.921,628.719 586.421,623.053 585,616.5C 582.908,611.303 580.074,606.636 576.5,602.5C 572.33,594.82 567.663,587.487 562.5,580.5C 562.573,578.973 561.906,577.973 560.5,577.5C 559.66,575.147 558.326,573.147 556.5,571.5C 553.664,565.822 550.331,560.489 546.5,555.5C 533.273,533.389 519.773,511.389 506,489.5C 504.566,482.794 507.066,478.294 513.5,476C 561.499,475.5 609.499,475.333 657.5,475.5 Z"/>
</svg>
