<?xml version="1.0" encoding="UTF-8"?>
<!DOCTYPE svg PUBLIC "-//W3C//DTD SVG 1.1//EN" "http://www.w3.org/Graphics/SVG/1.1/DTD/svg11.dtd">
<svg xmlns="http://www.w3.org/2000/svg" version="1.1" width="1024px" height="1024px" style="shape-rendering:geometricPrecision; text-rendering:geometricPrecision; image-rendering:optimizeQuality; fill-rule:evenodd; clip-rule:evenodd" xmlns:xlink="http://www.w3.org/1999/xlink">
<g><path style="opacity:1" fill="#000000" d="M 259.5,141.5 C 260.833,142.167 260.833,142.167 259.5,141.5 Z"/></g>
<g><path style="opacity:1" fill="#d9dad9" d="M 417.5,257.5 C 418.601,256.402 419.934,256.235 421.5,257C 420.207,257.49 418.873,257.657 417.5,257.5 Z"/></g>
<g><path style="opacity:1" fill="#e0e1e0" d="M 438.5,257.5 C 437.448,257.649 436.448,257.483 435.5,257C 436.749,256.26 437.749,256.427 438.5,257.5 Z"/></g>
<g><path style="opacity:1" fill="#e0e1e6" d="M 452.5,256.5 C 453.833,257.167 453.833,257.167 452.5,256.5 Z"/></g>
<g><path style="opacity:1" fill="#e0e7e0" d="M 548.5,256.5 C 549.833,257.167 549.833,257.167 548.5,256.5 Z"/></g>
<g><path style="opacity:1" fill="#e0e7e6" d="M 550.5,256.5 C 551.833,257.167 551.833,257.167 550.5,256.5 Z"/></g>
<g><path style="opacity:1" fill="#e6e7e6" d="M 561.5,256.5 C 562.833,257.167 562.833,257.167 561.5,256.5 Z"/></g>
<g><path style="opacity:1" fill="#e6e7e0" d="M 564.5,256.5 C 565.833,257.167 565.833,257.167 564.5,256.5 Z"/></g>
<g><path style="opacity:1" fill="#e0e7e0" d="M 580.5,256.5 C 581.833,257.167 581.833,257.167 580.5,256.5 Z"/></g>
<g><path style="opacity:1" fill="#e0e1e0" d="M 596.5,256.5 C 597.833,257.167 597.833,257.167 596.5,256.5 Z"/></g>
<g><path style="opacity:1" fill="#dcdcdc" d="M 598.5,257.5 C 598.897,256.475 599.563,256.308 600.5,257C 599.906,257.464 599.239,257.631 598.5,257.5 Z"/></g>
<g><path style="opacity:1" fill="#d9dad9" d="M 601.5,256.5 C 602.833,257.167 602.833,257.167 601.5,256.5 Z"/></g>
<g><path style="opacity:1" fill="#d9dad9" d="M 603.5,256.5 C 604.833,257.167 604.833,257.167 603.5,256.5 Z"/></g>
<g><path style="opacity:1" fill="#d9dad9" d="M 605.5,256.5 C 606.833,257.167 606.833,257.167 605.5,256.5 Z"/></g>
<g><path style="opacity:1" fill="#d3d4d3" d="M 614.5,257.5 C 615.833,258.167 615.833,258.167 614.5,257.5 Z"/></g>
<g><path style="opacity:1" fill="#d3d4d9" d="M 407.5,258.5 C 408.833,259.167 408.833,259.167 407.5,258.5 Z"/></g>
<g><path style="opacity:1" fill="#ededed" d="M 530.5,258.5 C 490.805,259.135 450.805,259.802 410.5,260.5C 411.263,259.732 412.263,259.232 413.5,259C 422.01,258.829 430.343,258.329 438.5,257.5C 453.114,258.229 467.781,258.562 482.5,258.5C 484.374,258.61 485.874,257.944 487,256.5C 488.009,257.658 489.342,258.325 491,258.5C 497.364,258.257 504.031,258.257 511,258.5C 513.95,258.432 516.617,257.766 519,256.5C 519.333,257.167 519.667,257.833 520,258.5C 522.235,257.761 524.235,257.761 526,258.5C 526.667,255.833 527.333,255.833 528,258.5C 528.977,257.226 529.811,257.226 530.5,258.5 Z"/></g>
<g><path style="opacity:1" fill="#efefef" d="M 593.5,258.5 C 573.598,259.825 553.598,259.825 533.5,258.5C 533.783,257.711 534.283,257.044 535,256.5C 537.733,258.891 540.4,258.891 543,256.5C 544.525,257.72 546.359,258.387 548.5,258.5C 563.014,257.975 578.014,257.975 593.5,258.5 Z"/></g>
<g><path style="opacity:1" fill="#d9dad9" d="M 611.5,258.5 C 612.833,259.167 612.833,259.167 611.5,258.5 Z"/></g>
<g><path style="opacity:1" fill="#f9f9f9" d="M 530.5,258.5 C 531.5,258.5 532.5,258.5 533.5,258.5C 553.598,259.825 573.598,259.825 593.5,258.5C 596.5,258.5 599.5,258.5 602.5,258.5C 605.273,259.657 608.273,260.324 611.5,260.5C 616.302,262.127 620.468,264.794 624,268.5C 630.942,279.405 638.109,290.071 645.5,300.5C 655.003,316.844 665.003,332.844 675.5,348.5C 675.427,350.027 676.094,351.027 677.5,351.5C 683.754,363.016 690.754,374.016 698.5,384.5C 703.155,392.472 707.822,400.472 712.5,408.5C 712.427,410.027 713.094,411.027 714.5,411.5C 719.474,419.087 717.807,424.921 709.5,429C 662.833,429.667 616.167,429.667 569.5,429C 567.975,427.991 566.308,427.491 564.5,427.5C 560.603,425.114 557.103,422.114 554,418.5C 549.364,410.056 544.198,402.056 538.5,394.5C 537,390.827 535,387.494 532.5,384.5C 530.281,379.291 527.281,374.624 523.5,370.5C 515.491,356.377 507.158,343.043 498.5,330.5C 496.316,326.119 493.65,322.119 490.5,318.5C 490.011,317.005 489.345,315.671 488.5,314.5C 487.649,312.118 486.316,310.118 484.5,308.5C 484.672,307.508 484.338,306.842 483.5,306.5C 483.5,305.833 483.167,305.5 482.5,305.5C 476.33,297.555 468.33,295.055 458.5,298C 456.273,298.941 454.273,300.108 452.5,301.5C 451.833,301.5 451.5,301.833 451.5,302.5C 445.554,308.427 444.054,315.427 447,323.5C 459.358,344.235 472.191,364.569 485.5,384.5C 498.336,406.178 511.669,427.511 525.5,448.5C 527.194,455.947 524.527,461.113 517.5,464C 468.167,464.667 418.833,464.667 369.5,464C 363.047,462.611 357.713,459.444 353.5,454.5C 343.82,439.797 334.153,425.13 324.5,410.5C 323.66,408.147 322.326,406.147 320.5,404.5C 315.997,396.156 310.997,388.156 305.5,380.5C 305.5,379.5 305.5,378.5 305.5,377.5C 305.5,374.167 305.5,370.833 305.5,367.5C 307.269,362.052 310.603,357.719 315.5,354.5C 319.566,351.437 322.899,347.771 325.5,343.5C 326.5,342.167 327.5,340.833 328.5,339.5C 331.5,337.167 334.167,334.5 336.5,331.5C 339.5,329.167 342.167,326.5 344.5,323.5C 356.112,311.553 367.778,299.553 379.5,287.5C 382.5,286.5 384.5,284.5 385.5,281.5C 389.167,277.5 392.833,273.5 396.5,269.5C 400.516,265.492 405.182,262.492 410.5,260.5C 450.805,259.802 490.805,259.135 530.5,258.5 Z"/></g>
<g><path style="opacity:1" fill="#dedfde" d="M 602.5,258.5 C 605.545,258.508 608.545,258.841 611.5,259.5C 611.5,259.833 611.5,260.167 611.5,260.5C 608.273,260.324 605.273,259.657 602.5,258.5 Z"/></g>
<g><path style="opacity:1" fill="#d9dad9" d="M 396.5,264.5 C 397.833,265.167 397.833,265.167 396.5,264.5 Z"/></g>
<g><path style="opacity:1" fill="#e0e1e0" d="M 396.5,269.5 C 395.833,268.167 395.833,268.167 396.5,269.5 Z"/></g>
<g><path style="opacity:1" fill="#e6e1e6" d="M 380.5,285.5 C 379.833,284.167 379.833,284.167 380.5,285.5 Z"/></g>
<g><path style="opacity:1" fill="#e4e4e4" d="M 385.5,281.5 C 384.5,284.5 382.5,286.5 379.5,287.5C 379.833,286.833 380.167,286.167 380.5,285.5C 382.167,284.167 383.833,282.833 385.5,281.5 Z"/></g>
<g><path style="opacity:1" fill="#e0e1e0" d="M 637.5,286.5 C 638.833,287.167 638.833,287.167 637.5,286.5 Z"/></g>
<g><path style="opacity:1" fill="#e0e7e6" d="M 645.5,296.5 C 646.833,297.167 646.833,297.167 645.5,296.5 Z"/></g>
<g><path style="opacity:1" fill="#e0dae0" d="M 359.5,298.5 C 360.833,299.167 360.833,299.167 359.5,298.5 Z"/></g>
<g><path style="opacity:1" fill="#e6e7e6" d="M 645.5,299.5 C 646.833,300.167 646.833,300.167 645.5,299.5 Z"/></g>
<g><path style="opacity:1" fill="#e6e7e6" d="M 363.5,300.5 C 364.833,301.167 364.833,301.167 363.5,300.5 Z"/></g>
<g><path style="opacity:1" fill="#f9faf9" d="M 452.5,301.5 C 453.833,302.167 453.833,302.167 452.5,301.5 Z"/></g>
<g><path style="opacity:1" fill="#f9faf9" d="M 451.5,302.5 C 451.833,302.5 452.167,302.5 452.5,302.5C 452.315,303.17 451.981,303.17 451.5,302.5 Z"/></g>
<g><path style="opacity:1" fill="#f9faf9" d="M 482.5,305.5 C 483.167,305.5 483.5,305.833 483.5,306.5C 483.5,307.167 483.5,307.833 483.5,308.5C 481.618,307.779 481.285,306.779 482.5,305.5 Z"/></g>
<g><path style="opacity:1" fill="#f9faf9" d="M 479.5,306.5 C 480.833,307.167 480.833,307.167 479.5,306.5 Z"/></g>
<g><path style="opacity:1" fill="#f9faf9" d="M 483.5,308.5 C 483.833,308.5 484.167,308.5 484.5,308.5C 484.315,309.17 483.981,309.17 483.5,308.5 Z"/></g>
<g><path style="opacity:1" fill="#f9faf9" d="M 446.5,313.5 C 447.833,314.167 447.833,314.167 446.5,313.5 Z"/></g>
<g><path style="opacity:1" fill="#f2faf9" d="M 488.5,314.5 C 487.833,315.167 487.833,315.167 488.5,314.5 Z"/></g>
<g><path style="opacity:1" fill="#f9faf9" d="M 446.5,316.5 C 447.833,317.167 447.833,317.167 446.5,316.5 Z"/></g>
<g><path style="opacity:1" fill="#f9f3f9" d="M 490.5,318.5 C 489.833,319.167 489.833,319.167 490.5,318.5 Z"/></g>
<g><path style="opacity:1" fill="#e6e7e6" d="M 344.5,323.5 C 343.833,322.167 343.833,322.167 344.5,323.5 Z"/></g>
<g><path style="opacity:1" fill="#e0e7e6" d="M 336.5,331.5 C 335.833,330.167 335.833,330.167 336.5,331.5 Z"/></g>
<g><path style="opacity:1" fill="#f9faf9" d="M 495.5,330.5 C 496.833,331.167 496.833,331.167 495.5,330.5 Z"/></g>
<g><path style="opacity:1" fill="#f9faf9" d="M 498.5,330.5 C 497.833,331.167 497.833,331.167 498.5,330.5 Z"/></g>
<g><path style="opacity:1" fill="#e0e1e6" d="M 328.5,339.5 C 327.833,338.167 327.833,338.167 328.5,339.5 Z"/></g>
<g><path style="opacity:1" fill="#f9faf9" d="M 459.5,341.5 C 460.833,342.167 460.833,342.167 459.5,341.5 Z"/></g>
<g><path style="opacity:1" fill="#e0e1e0" d="M 320.5,347.5 C 319.833,346.167 319.833,346.167 320.5,347.5 Z"/></g>
<g><path style="opacity:1" fill="#f9faf9" d="M 503.5,346.5 C 504.833,347.167 504.833,347.167 503.5,346.5 Z"/></g>
<g><path style="opacity:1" fill="#e2e2e2" d="M 325.5,343.5 C 322.899,347.771 319.566,351.437 315.5,354.5C 316.754,351.907 318.42,349.573 320.5,347.5C 322.167,346.167 323.833,344.833 325.5,343.5 Z"/></g>
<g><path style="opacity:1" fill="#e6e7e6" d="M 675.5,347.5 C 676.833,348.167 676.833,348.167 675.5,347.5 Z"/></g>
<g><path style="opacity:1" fill="#f9faf9" d="M 507.5,350.5 C 507.897,349.475 508.563,349.308 509.5,350C 508.906,350.464 508.239,350.631 507.5,350.5 Z"/></g>
<g><path style="opacity:1" fill="#e6e7e6" d="M 677.5,350.5 C 678.833,351.167 678.833,351.167 677.5,350.5 Z"/></g>
<g><path style="opacity:1" fill="#d9dad9" d="M 311.5,354.5 C 312.833,355.167 312.833,355.167 311.5,354.5 Z"/></g>
<g><path style="opacity:1" fill="#f9faf9" d="M 513.5,356.5 C 514.833,357.167 514.833,357.167 513.5,356.5 Z"/></g>
<g><path style="opacity:1" fill="#f9faf9" d="M 478.5,369.5 C 479.833,370.167 479.833,370.167 478.5,369.5 Z"/></g>
<g><path style="opacity:1" fill="#e2e3e5" d="M 305.5,367.5 C 305.5,370.833 305.5,374.167 305.5,377.5C 303.293,374.28 303.293,370.947 305.5,367.5 Z"/></g>
<g><path style="opacity:1" fill="#f9faf9" d="M 523.5,370.5 C 522.833,371.167 522.833,371.167 523.5,370.5 Z"/></g>
<g><path style="opacity:1" fill="#e0e1e6" d="M 693.5,374.5 C 694.833,375.167 694.833,375.167 693.5,374.5 Z"/></g>
<g><path style="opacity:1" fill="#d3d4d3" d="M 303.5,378.5 C 304.833,379.167 304.833,379.167 303.5,378.5 Z"/></g>
<g><path style="opacity:1" fill="#f9f3f9" d="M 527.5,378.5 C 528.833,379.167 528.833,379.167 527.5,378.5 Z"/></g>
<g><path style="opacity:1" fill="#d3dad9" d="M 305.5,380.5 C 304.833,381.167 304.833,381.167 305.5,380.5 Z"/></g>
<g><path style="opacity:1" fill="#f9faf9" d="M 528.5,380.5 C 529.833,381.167 529.833,381.167 528.5,380.5 Z"/></g>
<g><path style="opacity:1" fill="#f2f3f2" d="M 485.5,383.5 C 486.833,384.167 486.833,384.167 485.5,383.5 Z"/></g>
<g><path style="opacity:1" fill="#e6e7e6" d="M 698.5,383.5 C 699.833,384.167 699.833,384.167 698.5,383.5 Z"/></g>
<g><path style="opacity:1" fill="#f9faf9" d="M 532.5,384.5 C 531.833,385.167 531.833,385.167 532.5,384.5 Z"/></g>
<g><path style="opacity:1" fill="#f9faf9" d="M 492.5,393.5 C 493.833,394.167 493.833,394.167 492.5,393.5 Z"/></g>
<g><path style="opacity:1" fill="#e0e1e0" d="M 311.5,394.5 C 312.833,395.167 312.833,395.167 311.5,394.5 Z"/></g>
<g><path style="opacity:1" fill="#f9faf9" d="M 538.5,394.5 C 537.833,395.167 537.833,395.167 538.5,394.5 Z"/></g>
<g><path style="opacity:1" fill="#e0e1e0" d="M 709.5,400.5 C 710.833,401.167 710.833,401.167 709.5,400.5 Z"/></g>
<g><path style="opacity:1" fill="#e0e7e6" d="M 320.5,404.5 C 319.833,405.167 319.833,405.167 320.5,404.5 Z"/></g>
<g><path style="opacity:1" fill="#d3d4d3" d="M 715.5,408.5 C 716.833,409.167 716.833,409.167 715.5,408.5 Z"/></g>
<g><path style="opacity:1" fill="#cdcecd" d="M 717.5,408.5 C 718.833,409.167 718.833,409.167 717.5,408.5 Z"/></g>
<g><path style="opacity:1" fill="#e6e7e6" d="M 324.5,410.5 C 323.833,411.167 323.833,411.167 324.5,410.5 Z"/></g>
<g><path style="opacity:1" fill="#dadadc" d="M 712.5,408.5 C 713.906,408.973 714.573,409.973 714.5,411.5C 713.094,411.027 712.427,410.027 712.5,408.5 Z"/></g>
<g><path style="opacity:1" fill="#e6e7e6" d="M 327.5,417.5 C 328.833,418.167 328.833,418.167 327.5,417.5 Z"/></g>
<g><path style="opacity:1" fill="#c7c8cd" d="M 718.5,417.5 C 719.833,418.167 719.833,418.167 718.5,417.5 Z"/></g>
<g><path style="opacity:1" fill="#c7cecd" d="M 717.5,422.5 C 718.833,423.167 718.833,423.167 717.5,422.5 Z"/></g>
<g><path style="opacity:1" fill="#c7c8c7" d="M 718.5,425.5 C 719.833,426.167 719.833,426.167 718.5,425.5 Z"/></g>
<g><path style="opacity:1" fill="#f9faf9" d="M 564.5,427.5 C 563.833,428.167 563.833,428.167 564.5,427.5 Z"/></g>
<g><path style="opacity:1" fill="#f2faf2" d="M 628.5,430.5 C 629.833,431.167 629.833,431.167 628.5,430.5 Z"/></g>
<g><path style="opacity:1" fill="#e0e1e0" d="M 701.5,430.5 C 702.833,431.167 702.833,431.167 701.5,430.5 Z"/></g>
<g><path style="opacity:1" fill="#d3dad9" d="M 708.5,430.5 C 709.833,431.167 709.833,431.167 708.5,430.5 Z"/></g>
<g><path style="opacity:1" fill="#ecedec" d="M 335.5,432.5 C 336.833,433.167 336.833,433.167 335.5,432.5 Z"/></g>
<g><path style="opacity:1" fill="#e6edec" d="M 343.5,442.5 C 344.833,443.167 344.833,443.167 343.5,442.5 Z"/></g>
<g><path style="opacity:1" fill="#f5faf5" d="M 525.5,448.5 C 525.369,447.761 525.536,447.094 526,446.5C 526.692,447.437 526.525,448.103 525.5,448.5 Z"/></g>
<g><path style="opacity:1" fill="#e6edec" d="M 353.5,454.5 C 352.833,455.167 352.833,455.167 353.5,454.5 Z"/></g>
<g><path style="opacity:1" fill="#ecf3f2" d="M 355.5,458.5 C 356.833,459.167 356.833,459.167 355.5,458.5 Z"/></g>
<g><path style="opacity:1" fill="#f9faf9" d="M 524.5,473.5 C 525.833,474.167 525.833,474.167 524.5,473.5 Z"/></g>
<g><path style="opacity:1" fill="#f9faf9" d="M 526.5,473.5 C 527.833,474.167 527.833,474.167 526.5,473.5 Z"/></g>
<g><path style="opacity:1" fill="#f9faf9" d="M 534.5,473.5 C 535.833,474.167 535.833,474.167 534.5,473.5 Z"/></g>
<g><path style="opacity:1" fill="#f9faf9" d="M 550.5,473.5 C 551.833,474.167 551.833,474.167 550.5,473.5 Z"/></g>
<g><path style="opacity:1" fill="#f9faf9" d="M 558.5,473.5 C 559.833,474.167 559.833,474.167 558.5,473.5 Z"/></g>
<g><path style="opacity:1" fill="#f9faf9" d="M 574.5,473.5 C 575.833,474.167 575.833,474.167 574.5,473.5 Z"/></g>
<g><path style="opacity:1" fill="#f9faf9" d="M 581.5,474.5 C 581.897,473.475 582.563,473.308 583.5,474C 582.906,474.464 582.239,474.631 581.5,474.5 Z"/></g>
<g><path style="opacity:1" fill="#f9faf9" d="M 590.5,473.5 C 591.833,474.167 591.833,474.167 590.5,473.5 Z"/></g>
<g><path style="opacity:1" fill="#f9faf9" d="M 598.5,473.5 C 599.833,474.167 599.833,474.167 598.5,473.5 Z"/></g>
<g><path style="opacity:1" fill="#f9faf9" d="M 606.5,473.5 C 607.833,474.167 607.833,474.167 606.5,473.5 Z"/></g>
<g><path style="opacity:1" fill="#f9faf9" d="M 614.5,473.5 C 615.833,474.167 615.833,474.167 614.5,473.5 Z"/></g>
<g><path style="opacity:1" fill="#f9faf9" d="M 622.5,473.5 C 623.833,474.167 623.833,474.167 622.5,473.5 Z"/></g>
<g><path style="opacity:1" fill="#f9faf9" d="M 643.5,473.5 C 644.833,474.167 644.833,474.167 643.5,473.5 Z"/></g>
<g><path style="opacity:1" fill="#f9faf2" d="M 646.5,473.5 C 647.833,474.167 647.833,474.167 646.5,473.5 Z"/></g>
<g><path style="opacity:1" fill="#f2f3f2" d="M 654.5,473.5 C 655.833,474.167 655.833,474.167 654.5,473.5 Z"/></g>
<g><path style="opacity:1" fill="#f2f3f2" d="M 662.5,473.5 C 663.833,474.167 663.833,474.167 662.5,473.5 Z"/></g>
<g><path style="opacity:1" fill="#f2faf9" d="M 657.5,474.5 C 658.833,475.167 658.833,475.167 657.5,474.5 Z"/></g>
<g><path style="opacity:1" fill="#f9f9f9" d="M 657.5,475.5 C 664.789,477.595 670.956,481.595 676,487.5C 692,511.5 708,535.5 724,559.5C 725.874,563.52 725.874,567.52 724,571.5C 721.283,574.71 718.783,578.044 716.5,581.5C 691.195,608.474 665.861,635.474 640.5,662.5C 634.73,668.771 628.73,674.938 622.5,681C 618.547,683.81 614.213,685.81 609.5,687C 546.833,687.667 484.167,687.667 421.5,687C 419.277,686.434 417.277,685.6 415.5,684.5C 415.027,683.094 414.027,682.427 412.5,682.5C 411.833,682.5 411.167,682.5 410.5,682.5C 405.379,677.722 401.046,672.388 397.5,666.5C 396.331,663.489 394.664,660.822 392.5,658.5C 386.069,647.96 379.402,637.627 372.5,627.5C 371.241,623.975 369.241,620.975 366.5,618.5C 355.912,600.316 344.579,582.649 332.5,565.5C 332.068,564.29 331.401,563.29 330.5,562.5C 327.996,557.485 324.996,552.819 321.5,548.5C 321.672,547.508 321.338,546.842 320.5,546.5C 319.525,544.205 318.192,542.205 316.5,540.5C 313.555,534.896 310.221,529.562 306.5,524.5C 304.65,520.355 304.15,516.021 305,511.5C 306.728,508.047 309.562,506.214 313.5,506C 361.156,506.344 408.49,506.344 455.5,506C 465.15,507.51 472.483,512.343 477.5,520.5C 490.587,541.677 503.92,562.677 517.5,583.5C 522.42,593.014 528.086,602.014 534.5,610.5C 539.119,620.228 545.119,629.061 552.5,637C 559.208,640.671 566.208,641.338 573.5,639C 576.106,638.208 578.106,636.708 579.5,634.5C 580.167,634.5 580.5,634.167 580.5,633.5C 584.921,628.719 586.421,623.053 585,616.5C 582.908,611.303 580.074,606.636 576.5,602.5C 572.33,594.82 567.663,587.487 562.5,580.5C 562.573,578.973 561.906,577.973 560.5,577.5C 559.66,575.147 558.326,573.147 556.5,571.5C 553.664,565.822 550.331,560.489 546.5,555.5C 533.273,533.389 519.773,511.389 506,489.5C 504.566,482.794 507.066,478.294 513.5,476C 561.499,475.5 609.499,475.333 657.5,475.5 Z"/></g>
<g><path style="opacity:1" fill="#d3d4d3" d="M 310.5,504.5 C 311.833,505.167 311.833,505.167 310.5,504.5 Z"/></g>
<g><path style="opacity:1" fill="#f9faf9" d="M 519.5,514.5 C 520.833,515.167 520.833,515.167 519.5,514.5 Z"/></g>
<g><path style="opacity:1" fill="#f2faf9" d="M 477.5,519.5 C 478.833,520.167 478.833,520.167 477.5,519.5 Z"/></g>
<g><path style="opacity:1" fill="#cdced3" d="M 303.5,522.5 C 304.833,523.167 304.833,523.167 303.5,522.5 Z"/></g>
<g><path style="opacity:1" fill="#d3d4d3" d="M 306.5,524.5 C 305.833,525.167 305.833,525.167 306.5,524.5 Z"/></g>
<g><path style="opacity:1" fill="#f9faf9" d="M 529.5,530.5 C 530.833,531.167 530.833,531.167 529.5,530.5 Z"/></g>
<g><path style="opacity:1" fill="#f9faf9" d="M 531.5,533.5 C 532.833,534.167 532.833,534.167 531.5,533.5 Z"/></g>
<g><path style="opacity:1" fill="#e6e7e6" d="M 708.5,533.5 C 709.833,534.167 709.833,534.167 708.5,533.5 Z"/></g>
<g><path style="opacity:1" fill="#dee1e0" d="M 312.5,539.5 C 312.897,538.475 313.563,538.308 314.5,539C 313.906,539.464 313.239,539.631 312.5,539.5 Z"/></g>
<g><path style="opacity:1" fill="#e0e1e0" d="M 316.5,540.5 C 315.833,541.167 315.833,541.167 316.5,540.5 Z"/></g>
<g><path style="opacity:1" fill="#e0e1e0" d="M 718.5,545.5 C 719.833,546.167 719.833,546.167 718.5,545.5 Z"/></g>
<g><path style="opacity:1" fill="#e0e1e0" d="M 320.5,546.5 C 319.833,547.167 319.833,547.167 320.5,546.5 Z"/></g>
<g><path style="opacity:1" fill="#f9faf9" d="M 537.5,546.5 C 538.833,547.167 538.833,547.167 537.5,546.5 Z"/></g>
<g><path style="opacity:1" fill="#e0e1e6" d="M 321.5,548.5 C 320.833,549.167 320.833,549.167 321.5,548.5 Z"/></g>
<g><path style="opacity:1" fill="#e0e1e0" d="M 321.5,550.5 C 322.833,551.167 322.833,551.167 321.5,550.5 Z"/></g>
<g><path style="opacity:1" fill="#000000" d="M 943.5,554.5 C 944.833,555.167 944.833,555.167 943.5,554.5 Z"/></g>
<g><path style="opacity:1" fill="#f9faf9" d="M 546.5,555.5 C 545.833,556.167 545.833,556.167 546.5,555.5 Z"/></g>
<g><path style="opacity:1" fill="#e6e7e6" d="M 330.5,562.5 C 329.833,563.167 329.833,563.167 330.5,562.5 Z"/></g>
<g><path style="opacity:1" fill="#e0e7e6" d="M 332.5,565.5 C 331.833,566.167 331.833,566.167 332.5,565.5 Z"/></g>
<g><path style="opacity:1" fill="#cdcecd" d="M 726.5,565.5 C 727.833,566.167 727.833,566.167 726.5,565.5 Z"/></g>
<g><path style="opacity:1" fill="#f9faf9" d="M 556.5,571.5 C 555.833,572.167 555.833,572.167 556.5,571.5 Z"/></g>
<g><path style="opacity:1" fill="#f9faf9" d="M 560.5,577.5 C 559.833,578.167 559.833,578.167 560.5,577.5 Z"/></g>
<g><path style="opacity:1" fill="#f9faf9" d="M 562.5,580.5 C 561.833,581.167 561.833,581.167 562.5,580.5 Z"/></g>
<g><path style="opacity:1" fill="#e6e1e0" d="M 340.5,581.5 C 341.833,582.167 341.833,582.167 340.5,581.5 Z"/></g>
<g><path style="opacity:1" fill="#e0e1e0" d="M 716.5,581.5 C 717.833,582.167 717.833,582.167 716.5,581.5 Z"/></g>
<g><path style="opacity:1" fill="#f9f3f9" d="M 517.5,582.5 C 518.833,583.167 518.833,583.167 517.5,582.5 Z"/></g>
<g><path style="opacity:1" fill="#e6e7e6" d="M 343.5,584.5 C 344.833,585.167 344.833,585.167 343.5,584.5 Z"/></g>
<g><path style="opacity:1" fill="#f9faf9" d="M 569.5,594.5 C 570.833,595.167 570.833,595.167 569.5,594.5 Z"/></g>
<g><path style="opacity:1" fill="#f9faf9" d="M 576.5,602.5 C 575.833,603.167 575.833,603.167 576.5,602.5 Z"/></g>
<g><path style="opacity:1" fill="#f9faf9" d="M 534.5,608.5 C 533.833,607.167 533.833,607.167 534.5,608.5 Z"/></g>
<g><path style="opacity:1" fill="#f9faf9" d="M 534.5,608.5 C 535.833,609.167 535.833,609.833 534.5,610.5C 534.5,609.833 534.5,609.167 534.5,608.5 Z"/></g>
<g><path style="opacity:1" fill="#e6e7e6" d="M 684.5,616.5 C 685.833,617.167 685.833,617.167 684.5,616.5 Z"/></g>
<g><path style="opacity:1" fill="#f9faf9" d="M 583.5,617.5 C 584.525,617.897 584.692,618.563 584,619.5C 583.536,618.906 583.369,618.239 583.5,617.5 Z"/></g>
<g><path style="opacity:1" fill="#e6e7e6" d="M 366.5,618.5 C 365.833,619.167 365.833,619.167 366.5,618.5 Z"/></g>
<g><path style="opacity:1" fill="#e6e7e6" d="M 681.5,619.5 C 682.833,620.167 682.833,620.167 681.5,619.5 Z"/></g>
<g><path style="opacity:1" fill="#f9faf9" d="M 583.5,620.5 C 584.573,621.251 584.74,622.251 584,623.5C 583.517,622.552 583.351,621.552 583.5,620.5 Z"/></g>
<g><path style="opacity:1" fill="#e6e7e6" d="M 371.5,627.5 C 370.761,627.631 370.094,627.464 369.5,627C 370.437,626.308 371.103,626.475 371.5,627.5 Z"/></g>
<g><path style="opacity:1" fill="#e6e7e6" d="M 371.5,627.5 C 371.833,627.5 372.167,627.5 372.5,627.5C 372.315,628.17 371.981,628.17 371.5,627.5 Z"/></g>
<g><path style="opacity:1" fill="#e0e7e6" d="M 371.5,629.5 C 372.833,630.167 372.833,630.167 371.5,629.5 Z"/></g>
<g><path style="opacity:1" fill="#f9faf9" d="M 576.5,631.5 C 577.833,632.167 577.833,632.167 576.5,631.5 Z"/></g>
<g><path style="opacity:1" fill="#f9faf9" d="M 580.5,633.5 C 579.833,633.5 579.5,633.833 579.5,634.5C 578.957,634.44 578.624,634.107 578.5,633.5C 579.257,632.227 579.923,632.227 580.5,633.5 Z"/></g>
<g><path style="opacity:1" fill="#e6e7e6" d="M 375.5,634.5 C 376.833,635.167 376.833,635.167 375.5,634.5 Z"/></g>
<g><path style="opacity:1" fill="#e0e7e6" d="M 392.5,658.5 C 391.833,659.167 391.833,659.167 392.5,658.5 Z"/></g>
<g><path style="opacity:1" fill="#e0e1e0" d="M 640.5,662.5 C 641.833,663.167 641.833,663.167 640.5,662.5 Z"/></g>
<g><path style="opacity:1" fill="#e0e1e0" d="M 397.5,666.5 C 396.833,667.167 396.833,667.167 397.5,666.5 Z"/></g>
<g><path style="opacity:1" fill="#d3d4d3" d="M 399.5,676.5 C 400.833,677.167 400.833,677.167 399.5,676.5 Z"/></g>
<g><path style="opacity:1" fill="#d9dad9" d="M 410.5,682.5 C 409.833,683.167 409.833,683.167 410.5,682.5 Z"/></g>
<g><path style="opacity:1" fill="#dbdbdb" d="M 412.5,682.5 C 414.027,682.427 415.027,683.094 415.5,684.5C 413.973,684.573 412.973,683.906 412.5,682.5 Z"/></g>
<g><path style="opacity:1" fill="#000000" d="M 307.5,933.5 C 308.833,934.167 308.833,934.167 307.5,933.5 Z"/></g>
<g><path style="opacity:1" fill="#000000" d="M 842.5,964.5 C 843.833,965.167 843.833,965.167 842.5,964.5 Z"/></g>
</svg>
